<?xml version="1.0" encoding="utf-8"?>
<!-- Generator: Adobe Illustrator 18.0.0, SVG Export Plug-In . SVG Version: 6.00 Build 0)  -->
<!DOCTYPE svg PUBLIC "-//W3C//DTD SVG 1.1//EN" "http://www.w3.org/Graphics/SVG/1.1/DTD/svg11.dtd">
<svg version="1.1" id="Layer_1" xmlns="http://www.w3.org/2000/svg" xmlns:xlink="http://www.w3.org/1999/xlink" x="0px" y="0px"
	 viewBox="0 0 2000 2000" enable-background="new 0 0 2000 2000" xml:space="preserve">
<g id="XMLID_12_">
	<path id="XMLID_33_" fill="#72D0EB" d="M1710.9,1392c-43.3-161.1-98.5-318.5-167.5-471.8c-58,5-113.9,12.5-167.8,22.3
		c122.9,131.5,222.1,280.9,298.6,449.6h-52c-77.4-165.2-177.5-310.9-301.3-438.6c-78.2,17-152,39.3-221.9,66.5
		c17.4,8.4,34.5,17.1,51.3,26.1c163,87,303.6,203.6,427.6,346.1h-63.2c-113.6-124.4-240.9-226.8-386.5-304.6
		c-28.7-15.3-58.1-29.7-88.2-43c-28.3,12.6-55.9,25.9-82.9,40.2c-147.9,78.1-277,181.5-391.9,307.4h-63.2
		c125.4-144.2,267.8-261.8,433.1-349.1c15.1-7.9,30.3-15.6,45.8-23.1c-69.9-27.2-143.7-49.4-221.9-66.4
		c-123.8,127.7-223.9,273.5-301.3,438.6h-52c76.5-168.6,175.7-318.1,298.6-449.6c-53.9-9.8-109.8-17.2-167.9-22.2
		C467.8,1073.5,412.5,1231,369.2,1392h-48.7c61.3-231.8,147-456.4,262.2-672.3c105.5-197.8,235.7-388.2,394.6-569.9
		c25.5-29.1,42-47,62.9-69.8c23.5,23.2,39.2,42.6,67.9,75.6c156.5,179.9,285.1,368.3,389.5,564.1
		c115.1,215.9,200.9,440.5,262.2,672.3H1710.9L1710.9,1392z M1522.6,874.8c-21-44.7-43.2-89-66.6-132.9
		c-34.2-64-71.1-127.3-110.6-189.8c-93.9,42.8-181.3,89.6-262.3,140.7c88,60.1,168.2,125.6,240.9,196.7c4.2,4.1,8.4,8.3,12.6,12.5
		C1396.1,890,1458.1,880.8,1522.6,874.8L1522.6,874.8z M1319.5,512c-81.5-124.1-174.3-244.9-279.4-362
		C935,267.1,842.2,387.9,760.7,512c100.3,46,193.4,96.7,279.5,152.3C1126.1,608.7,1219.2,558,1319.5,512L1319.5,512z M624.2,741.9
		c-23.4,43.9-45.6,88.3-66.6,132.9C622,880.9,684,890,743.6,902c5-5,10-9.9,15-14.8c72.1-70.3,151.6-135,238.6-194.5
		c-81.1-51.1-168.5-98-262.3-140.7C695.2,614.5,658.4,677.8,624.2,741.9L624.2,741.9z M1040.2,720.6
		c-88.4,59-168.8,123.4-241.6,193.5c85.3,20.3,165.6,46.7,241.4,79c75.9-32.3,156.2-58.8,241.6-79.1
		C1208.8,844,1128.4,779.6,1040.2,720.6z"/>
	<path id="XMLID_11_" fill-rule="evenodd" clip-rule="evenodd" fill="#72D0EB" d="M1040.1,353.7c48.3,0,87.5,39.2,87.5,87.5
		c0,48.3-39.2,87.5-87.5,87.5c-48.4,0-87.5-39.2-87.5-87.5C952.6,392.9,991.8,353.7,1040.1,353.7z"/>
</g>
<g id="XMLID_42_">
	<path id="XMLID_43_" fill="#F9F9F9" d="M388.3,1680.8v141.5H363V1471h90.6c41.2,0,72.3,9,93.2,27.1c20.9,18,31.4,43.8,31.4,77.2
		c0,15.4-2.9,29.5-8.6,42.5c-5.7,12.9-13.9,24-24.7,33.4c-10.8,9.4-23.8,16.6-39.2,21.9s-32.8,7.8-52.1,7.8H388.3z M388.3,1660.4
		h65.3c15.6,0,29.5-2.1,41.7-6.5c12.2-4.3,22.6-10.3,31.2-17.9c8.5-7.6,15.1-16.6,19.6-26.9c4.5-10.4,6.8-21.6,6.8-33.9
		c0-27-8.3-47.7-24.9-62.3c-16.6-14.6-41.4-21.8-74.4-21.8h-65.3V1660.4z"/>
	<path id="XMLID_46_" fill="#F9F9F9" d="M898,1471v21.1H713v142H867v20.6H713v146.5h185v21.1H687.5V1471H898z"/>
	<path id="XMLID_48_" fill="#F9F9F9" d="M1188.3,1513.7c-1.5,2.8-3.6,4.2-6.5,4.2c-2.2,0-4.9-1.5-8.3-4.6c-3.4-3.1-8-6.5-13.8-10.2
		c-5.8-3.7-13.1-7.2-21.8-10.3c-8.7-3.1-19.5-4.7-32.2-4.7c-12.8,0-24,1.8-33.8,5.5c-9.7,3.6-17.9,8.6-24.4,14.9
		s-11.5,13.6-14.9,21.9c-3.4,8.3-5.1,17-5.1,26.1c0,11.9,2.5,21.8,7.6,29.5c5.1,7.8,11.7,14.4,20,19.9c8.3,5.5,17.7,10.1,28.2,13.8
		c10.5,3.7,21.3,7.4,32.5,11c11.1,3.6,21.9,7.7,32.4,12c10.5,4.4,19.9,9.9,28.2,16.5c8.3,6.6,15,14.8,20,24.4
		c5.1,9.7,7.6,21.7,7.6,36.1c0,14.7-2.5,28.6-7.6,41.6c-5.1,13-12.4,24.3-22,33.9s-21.4,17.2-35.3,22.7c-13.9,5.6-29.8,8.3-47.7,8.3
		c-23.2,0-43.1-4.1-59.8-12.3c-16.7-8.2-31.4-19.4-43.9-33.6l6.9-10.9c2-2.5,4.3-3.7,6.9-3.7c1.5,0,3.4,1,5.7,3
		c2.3,2,5.1,4.4,8.5,7.3c3.3,2.9,7.3,6,11.9,9.4c4.6,3.4,10,6.5,16.2,9.4c6.1,2.9,13.2,5.4,21.1,7.3c8,2,17,3,27.1,3
		c13.9,0,26.4-2.1,37.3-6.3c10.9-4.2,20.2-10,27.7-17.3c7.5-7.3,13.3-15.9,17.3-26c4-10,6-20.7,6-32.2c0-12.4-2.5-22.6-7.6-30.7
		c-5.1-8-11.7-14.7-20-20.1c-8.3-5.4-17.7-9.9-28.2-13.5c-10.5-3.6-21.3-7.2-32.4-10.7c-11.1-3.5-21.9-7.4-32.4-11.7
		c-10.5-4.3-19.9-9.8-28.2-16.5s-15-15-20-25.1c-5.1-10-7.6-22.6-7.6-37.6c0-11.8,2.2-23.1,6.7-34c4.5-10.9,11-20.6,19.6-28.9
		c8.6-8.4,19.3-15.1,31.9-20.1c12.7-5,27.1-7.6,43.4-7.6c18.2,0,34.6,2.9,49.1,8.7c14.5,5.8,27.7,14.6,39.6,26.6L1188.3,1513.7z"/>
	<path id="XMLID_50_" fill="#F9F9F9" d="M1570.1,1763.2c1.6,0,3.1,0.6,4.2,1.7l9.9,10.7c-7.3,7.8-15.2,14.8-23.8,21
		c-8.6,6.2-18,11.5-28.2,15.9c-10.2,4.4-21.4,7.8-33.5,10.2c-12.2,2.4-25.5,3.6-40.1,3.6c-24.3,0-46.6-4.3-66.9-12.8
		c-20.3-8.5-37.7-20.6-52.1-36.3c-14.5-15.6-25.8-34.5-33.9-56.7c-8.1-22.2-12.2-46.8-12.2-74c0-26.7,4.2-51,12.5-73
		c8.3-22,20.1-40.9,35.3-56.7c15.2-15.8,33.3-28.1,54.4-36.8c21.1-8.7,44.4-13,69.9-13c12.7,0,24.4,1,35,2.8
		c10.6,1.9,20.5,4.6,29.7,8.2c9.2,3.6,17.8,8,26,13.3s16.1,11.4,23.8,18.4l-7.7,11.2c-1.3,2-3.4,3-6.2,3c-1.5,0-3.4-0.9-5.7-2.6
		c-2.3-1.7-5.3-3.9-8.8-6.5c-3.6-2.6-7.9-5.4-12.9-8.4c-5.1-3.1-11-5.9-18-8.4c-7-2.6-15-4.7-24.1-6.5c-9.1-1.7-19.5-2.6-31-2.6
		c-21.4,0-41,3.7-58.8,11.1c-17.9,7.4-33.3,17.9-46.2,31.5c-12.9,13.6-23,30.2-30.2,49.6c-7.2,19.4-10.8,41.3-10.8,65.4
		c0,24.8,3.6,47,10.7,66.5c7.1,19.5,17,36,29.5,49.5c12.6,13.5,27.4,23.8,44.6,31c17.1,7.2,35.7,10.8,55.7,10.8
		c12.6,0,23.8-0.8,33.6-2.5c9.8-1.6,18.9-4.1,27.2-7.4c8.3-3.3,16-7.4,23.1-12.2c7.1-4.8,14.1-10.4,21.1-16.9
		c0.8-0.7,1.6-1.2,2.4-1.6C1568.3,1763.4,1569.1,1763.2,1570.1,1763.2z"/>
	<path id="XMLID_52_" fill="#F9F9F9" d="M1736.2,1822.3h-25.6V1471h25.6V1822.3z"/>
</g>
</svg>
